<svg xmlns="http://www.w3.org/2000/svg" viewBox="0 0 64 64">
  <path d="M51 12.2h-6.53a.5.5 0 00-.5.5.5.5 0 00.5.5h5.32L37.93 25.06a.5.5 0 000 .7.51.51 0 00.36.15.49.49 0 00.35-.15L50.5 13.91v5.32a.5.5 0 101 0V12.7a.5.5 0 00-.5-.5zM25.43 37.56L13.57 49.42V44.1a.5.5 0 00-1 0v6.53a.5.5 0 00.5.5h6.53a.5.5 0 000-1h-5.32l11.86-11.86a.5.5 0 00-.71-.71zM51 43.6a.5.5 0 00-.5.5v5.32L38.64 37.56a.5.5 0 00-.71.71l11.86 11.86h-5.32a.5.5 0 000 1H51a.5.5 0 00.5-.5V44.1a.5.5 0 00-.5-.5zM14.28 13.2h5.32a.5.5 0 00.5-.5.5.5 0 00-.5-.5h-6.53a.5.5 0 00-.5.5v6.53a.5.5 0 001 0v-5.32l11.86 11.85a.49.49 0 00.35.15.51.51 0 00.36-.15.5.5 0 000-.7zM28.42 28.05a5.12 5.12 0 107.23 0 5.11 5.11 0 00-7.23 0zM35 34.57a4.13 4.13 0 111.2-2.91 4.11 4.11 0 01-1.2 2.91z" />
</svg>
