<svg xmlns="http://www.w3.org/2000/svg" viewBox="0 0 64 64">
  <path d="M44.14 28.36c4.59-6 7.31-11.6 5.19-13.71s-7.72.6-13.71 5.19a12.36 12.36 0 00-6.61 0c-6-4.59-11.6-7.31-13.71-5.19s.6 7.72 5.19 13.71a12.36 12.36 0 000 6.61c-4.59 6-7.31 11.59-5.19 13.71a2.76 2.76 0 002 .73c2.74 0 7.09-2.41 11.67-5.92a12.36 12.36 0 006.61 0c4.58 3.51 8.93 5.92 11.67 5.92a2.76 2.76 0 002-.73c2.12-2.12-.6-7.72-5.19-13.71a12.36 12.36 0 00.08-6.61zM43.35 34a77.72 77.72 0 00-1.91-2.31c.66-.76 1.3-1.54 1.91-2.3a11.19 11.19 0 010 4.61zm-15.06 1.69c-1.36-1.37-2.61-2.71-3.77-4 1.16-1.31 2.41-2.66 3.77-4s2.71-2.62 4-3.77q2 1.72 4 3.77c1.36 1.36 2.61 2.71 3.77 4-1.16 1.32-2.41 2.66-3.77 4s-2.71 2.61-4 3.77c-1.29-1.16-2.63-2.41-4-3.77zm3.26 4.43c-.94.81-1.86 1.56-2.75 2.25a11.11 11.11 0 01-4.47-2.73 11.3 11.3 0 01-2.73-4.46c.7-.89 1.45-1.81 2.26-2.75 1.19 1.35 2.44 2.68 3.72 4s2.62 2.5 3.97 3.69zm-7.69-9.22c-.81-.9-1.56-1.9-2.26-2.76A11.16 11.16 0 0128.8 21c.9.69 1.82 1.45 2.75 2.25-1.35 1.2-2.68 2.45-4 3.73s-2.5 2.57-3.69 3.92zm9.22-7.7c.93-.8 1.85-1.56 2.75-2.25A11.16 11.16 0 0143 28.14c-.7.9-1.45 1.82-2.26 2.76-1.19-1.35-2.44-2.69-3.72-4s-2.59-2.5-3.94-3.7zm4 13.19c1.28-1.28 2.53-2.61 3.72-4 .81.94 1.56 1.86 2.26 2.75a11.3 11.3 0 01-2.73 4.46 11.15 11.15 0 01-4.46 2.73q-1.35-1-2.76-2.25c1.32-1.15 2.65-2.4 3.94-3.69zm10.25-21.46a1.81 1.81 0 011.3.42c1.31 1.32-.47 5.94-4.88 11.85A12.21 12.21 0 0041 23a12.07 12.07 0 00-4.22-2.75c4.63-3.47 8.48-5.32 10.55-5.32zm-15 5.45a11.17 11.17 0 012.3.25c-.77.61-1.54 1.25-2.31 1.91-.76-.66-1.54-1.3-2.3-1.91a11.19 11.19 0 012.3-.25zM16 15.35a1.81 1.81 0 011.3-.42c2.07 0 5.92 1.85 10.55 5.3A12.07 12.07 0 0023.63 23a12.21 12.21 0 00-2.75 4.22c-4.41-5.93-6.19-10.55-4.88-11.87zm5.28 14c.61.76 1.25 1.54 1.91 2.3-.66.77-1.3 1.54-1.91 2.31a11.19 11.19 0 010-4.6zM16 48c-1.31-1.32.47-5.94 4.88-11.85a12.2 12.2 0 007 7C21.94 47.5 17.32 49.29 16 48zm14-5.3c.77-.61 1.55-1.25 2.31-1.92a65.4 65.4 0 002.32 1.92 11.29 11.29 0 01-4.63 0zM48.63 48c-1.32 1.31-5.94-.48-11.85-4.88a12.2 12.2 0 007-7C48.16 42 49.94 46.66 48.63 48z"/>
</svg>
