<svg xmlns="http://www.w3.org/2000/svg" viewBox="0 0 64 64">
  <path d="M17.09 26.43l10.52 3.06h.14a.5.5 0 00.43-.25.47.47 0 00-.08-.6L18.4 19a.53.53 0 00-.52-.12.5.5 0 00-.33.41l-.82 6.65a.49.49 0 00.36.49zm1.33-6.05L26 28l-8.25-2.4zM27.7 32.63a.49.49 0 00-.48-.38H13.49a.5.5 0 00-.39.81l4.12 5.28a.51.51 0 00.39.19.54.54 0 00.25-.06l9.6-5.28a.49.49 0 00.24-.56zm-9.95 4.76l-3.23-4.14h10.75zM29.74 35.34a.52.52 0 00-.61.08l-9.7 9.7a.5.5 0 00-.12.52.49.49 0 00.41.33l6.65.83h.06a.51.51 0 00.48-.36L30 35.91a.5.5 0 00-.26-.57zm-3.67 10.41l-5.21-.64 7.6-7.61zM31 12.57a.49.49 0 00-.52 0l-5.28 4.12a.51.51 0 00-.14.64L30.33 27a.51.51 0 00.44.26h.13a.5.5 0 00.37-.49V13a.5.5 0 00-.27-.43zm-.72 12.22l-4.13-7.52L30.27 14zM34.26 27.7a.47.47 0 00.25.07.54.54 0 00.36-.14l9.7-9.71a.49.49 0 00.12-.52.49.49 0 00-.41-.33l-6.65-.82a.5.5 0 00-.54.36L34 27.13a.5.5 0 00.26.57zm3.67-10.41l5.21.65-7.6 7.6zM33.67 36.07a.52.52 0 00-.57-.25.5.5 0 00-.37.49V50a.5.5 0 00.28.45.54.54 0 00.22.05.51.51 0 00.31-.11l5.27-4.12a.5.5 0 00.14-.63zM33.73 49V38.25l4.13 7.53zM46.91 36.62l-10.52-3.06a.5.5 0 00-.49.83l9.7 9.71a.54.54 0 00.36.14h.16a.51.51 0 00.33-.42l.82-6.64a.49.49 0 00-.36-.56zm-1.33 6L38 35.06l8.25 2.4zM50.9 30l-4.12-5.28a.48.48 0 00-.63-.13l-9.61 5.28a.49.49 0 00-.24.56.51.51 0 00.48.38h13.73a.5.5 0 00.39-.81zm-12.17-.2l7.53-4.14 3.22 4.14z" />
</svg>
