<svg xmlns="http://www.w3.org/2000/svg" viewBox="0 0 64 64">
  <path d="M47.7 46.7l-5.52-9.42a2.66 2.66 0 001.18-1.86l.39-2.87a1.69 1.69 0 01.53-1l2.1-1.95a2.65 2.65 0 00.45-3.38l-1.56-2.45a1.55 1.55 0 01-.27-1.1l.39-2.87a2.63 2.63 0 00-1.83-2.89L40.83 16a1.65 1.65 0 01-.89-.69l-1.55-2.41a2.65 2.65 0 00-3.25-1L32.46 13a1.63 1.63 0 01-1.13 0l-2.76-.89a2.65 2.65 0 00-3.15 1.3L24.08 16a1.68 1.68 0 01-.84.76l-2.68 1.11a2.66 2.66 0 00-1.58 3l.62 2.83a1.63 1.63 0 01-.15 1.12l-1.34 2.58a2.64 2.64 0 00.73 3.33l2.3 1.76a1.71 1.71 0 01.61.95l.62 2.84a2.63 2.63 0 001 1.53l-5.2 8.89a1 1 0 000 1.11.73.73 0 00.8.25L22.81 47l.44 4.63a.79.79 0 00.58.73h.18a.92.92 0 00.77-.48l6.69-11.41a2.57 2.57 0 001.49.48 2.63 2.63 0 001.45-.44l6.67 11.38a.91.91 0 00.77.47h.17a.78.78 0 00.59-.73l.44-4.63 3.82 1.11a.74.74 0 00.81-.25 1 1 0 00.02-1.16zm-23.52 4.18l-.4-4.21a.77.77 0 00-.31-.64.74.74 0 00-.45-.15.83.83 0 00-.22 0L19.15 47l5.11-8.71a2.69 2.69 0 00.8.09l1.44-.06 1.5-.09a1.7 1.7 0 011 .35l1.62 1.25zm7.76-11.31l-2.29-1.77a2.72 2.72 0 00-1.27-.54h-.37l-2.9.12a1.41 1.41 0 01-.5-.07l-.15-.05a1.65 1.65 0 01-1-1.17l-.62-2.83a2.58 2.58 0 00-1-1.53l-2.29-1.76a1.63 1.63 0 01-.55-2.1l1.34-2.57a2.67 2.67 0 00.24-1.8L20 20.67a1.65 1.65 0 011-1.88l2.67-1.11A2.62 2.62 0 0025 16.46l1.35-2.57a1.64 1.64 0 012-.8L31 14a2.68 2.68 0 001.81-.07l2.68-1.11a1.65 1.65 0 012 .65l1.55 2.44A2.72 2.72 0 0040.53 17l2.76.88a1.65 1.65 0 011.14 1.8L44 22.53a2.56 2.56 0 00.39 1.77L46 26.75a1.66 1.66 0 01-.28 2.11L43.6 30.8a2.75 2.75 0 00-.84 1.61l-.39 2.87a1.66 1.66 0 01-1.54 1.43l-2.89.12a2.69 2.69 0 00-1.68.69l-2 1.84-.13.12a1.65 1.65 0 01-2.19.09zm11.12 6.34a.73.73 0 00-.67.12.74.74 0 00-.31.59l-.41 4.27-6.49-11.07 1.72-1.56a1.65 1.65 0 011-.43l2.9-.12a2.52 2.52 0 00.37-.05L46.7 47z"/>
  <path d="M42.09 26a9.57 9.57 0 10-9.57 9.56A9.58 9.58 0 0042.09 26zm-9.57 8.56A8.57 8.57 0 1141.09 26a8.57 8.57 0 01-8.57 8.57z" />
</svg>
