<svg xmlns="http://www.w3.org/2000/svg" viewBox="0 0 64 64">
  <path d="M16.15 37.52h-2.93a.93.93 0 00-.93.93v12.26a.93.93 0 00.93.93h2.93a.93.93 0 00.93-.93V38.45a.93.93 0 00-.93-.93zm-.07 13.12l-2.79.07-.07-12.19 2.86-.07zM50.49 13.81h-2.35A1.23 1.23 0 0046.92 15v35.53A1.11 1.11 0 0048 51.64h2.6a1.11 1.11 0 001.11-1.11V15a1.22 1.22 0 00-1.22-1.19zm.22 36.61a.22.22 0 01-.22.22h-2.35a.22.22 0 01-.22-.22V25.51a.11.11 0 01.08-.11h2.6a.11.11 0 01.11.11zm0-26h-2.82V15a.22.22 0 01.22-.23h2.35a.22.22 0 01.22.23zM23 32.23h-2.78a1 1 0 00-1 1v17.4a1 1 0 001 1H23a1 1 0 001-1V33.24a1 1 0 00-1-1.01zm0 18.4h-2.8v-17.4H23zM29.86 27.18h-2.64a1.08 1.08 0 00-1.08 1.08v22.31a1.07 1.07 0 001.08 1.07h2.64a1.08 1.08 0 001.08-1.07V28.26a1.08 1.08 0 00-1.08-1.08zm.08 23.39a.08.08 0 01-.08.07h-2.64a.07.07 0 01-.08-.07V28.26a.07.07 0 01.08-.08h2.64a.08.08 0 01.08.08zM36.74 23.42h-2.55a1.14 1.14 0 00-1.13 1.13v26a1.13 1.13 0 001.13 1.12h2.55a1.12 1.12 0 001.12-1.12v-26a1.13 1.13 0 00-1.12-1.13zm.12 27.1a.12.12 0 01-.12.12h-2.55a.12.12 0 01-.13-.12v-26a.13.13 0 01.13-.13h2.55a.12.12 0 01.12.13zM43.62 19.2h-2.46A1.17 1.17 0 0040 20.36v30.11a1.17 1.17 0 001.17 1.17h2.46a1.17 1.17 0 001.17-1.17V20.36a1.17 1.17 0 00-1.18-1.16zm.17 31.27a.17.17 0 01-.17.17h-2.46a.17.17 0 01-.17-.17V20.36a.17.17 0 01.17-.16h2.46a.17.17 0 01.17.16z" />
</svg>
