
<svg xmlns="http://www.w3.org/2000/svg" viewBox="0 0 64 64">
  <path d="M47.38 15.94h-2.77v-2.63a1.37 1.37 0 10-2.74 0v2.63H22.19v-2.63a1.37 1.37 0 00-2.74 0v2.63h-2.83a2 2 0 00-2 2v32.24a.5.5 0 00.5.5h33.75a.5.5 0 00.5-.5V17.94a2 2 0 00-1.99-2zm-4.14 5a1.37 1.37 0 001.37-1.37V19a1.83 1.83 0 01.32 1 1.72 1.72 0 11-3.06-1v.61a1.37 1.37 0 001.37 1.32zm-.37-7.62a.37.37 0 11.74 0v6.25a.37.37 0 11-.74 0zm-22 7.62a1.37 1.37 0 001.37-1.37V19a1.73 1.73 0 11-3.12 1 1.79 1.79 0 01.33-1v.61a1.37 1.37 0 001.37 1.32zm-.37-7.62a.37.37 0 01.74 0v6.25a.37.37 0 01-.74 0zm-4.82 4.63a1 1 0 011-1h2.83v.71h-.08A2.75 2.75 0 1023.51 20a2.78 2.78 0 00-1.32-2.36v-.73h19.68v.71h-.08A2.75 2.75 0 1045.93 20a2.78 2.78 0 00-1.32-2.36v-.73h2.77a1 1 0 011 1v5.79H15.63zm32.69 31.73H15.63V24.73h32.74z" />
  <path d="M17.91 33.76h8a.5.5 0 00.5-.5v-4.41a.5.5 0 00-.5-.5h-8a.5.5 0 00-.5.5v4.41a.5.5 0 00.5.5zm.5-4.41h7v3.41h-7zM28 33.76h8a.5.5 0 00.5-.5v-4.41a.5.5 0 00-.5-.5h-8a.5.5 0 00-.5.5v4.41a.5.5 0 00.5.5zm.5-4.41h7v3.41h-7zM38.1 33.76h8a.5.5 0 00.5-.5v-4.41a.5.5 0 00-.5-.5h-8a.5.5 0 00-.5.5v4.41a.5.5 0 00.5.5zm.5-4.41h7v3.41h-7zM17.91 40h8a.51.51 0 00.5-.5v-4.37a.5.5 0 00-.5-.5h-8a.5.5 0 00-.5.5v4.41a.5.5 0 00.5.46zm.5-4.41h7V39h-7zM28 40h8a.5.5 0 00.5-.5v-4.37a.5.5 0 00-.5-.5h-8a.5.5 0 00-.5.5v4.41a.5.5 0 00.5.46zm.5-4.41h7V39h-7zM38.1 40h8a.5.5 0 00.5-.5v-4.37a.5.5 0 00-.5-.5h-8a.5.5 0 00-.5.5v4.41a.51.51 0 00.5.46zm.5-4.41h7V39h-7zM17.91 46.31h8a.5.5 0 00.5-.5V41.4a.51.51 0 00-.5-.5h-8a.5.5 0 00-.5.5v4.41a.5.5 0 00.5.5zm.5-4.41h7v3.41h-7zM28 46.31h8a.5.5 0 00.5-.5V41.4a.5.5 0 00-.5-.5h-8a.5.5 0 00-.5.5v4.41a.5.5 0 00.5.5zm.5-4.41h7v3.41h-7zM38.1 46.31h8a.5.5 0 00.5-.5V41.4a.5.5 0 00-.5-.5h-8a.51.51 0 00-.5.5v4.41a.5.5 0 00.5.5zm.5-4.41h7v3.41h-7z" />
</svg>
