<svg xmlns="http://www.w3.org/2000/svg" viewBox="0 0 64 64">
  <path d="M51 36v-1.75c0-4.31-1.48-6.12-3.18-6.78a17.26 17.26 0 01-.92-3.89c-.48-2.86-1-5.8-3.13-6H20.05c-2.14.24-2.63 3.17-3.11 6a15.07 15.07 0 01-1.08 4.17C13 28.9 13 31.53 13 34.27V35c0 2.15 0 4 .9 5.2v2.92a3.21 3.21 0 003.1 3.34h1.73a3.21 3.21 0 003-3.28v-1.82h20.66v1.8a3.2 3.2 0 003 3.3h1.74a3.21 3.21 0 003-3.28v-2.79c.93-.98.87-2.55.87-4.39zM17.92 23.75c.43-2.56.88-5.21 2.42-5.21h23.13c1.54 0 2 2.66 2.41 5.22a25.08 25.08 0 00.74 3.44 5.53 5.53 0 00-.71 0H43.1a4.23 4.23 0 00-4-3.15L39 24h-.55a4.23 4.23 0 00-4 3.15H19.8a13.76 13.76 0 00-2.69.24 21.79 21.79 0 00.81-3.64zm24.17 3.41h-6.61a3.6 3.6 0 016.61 0zM14 35v-.74c0-3.68 0-6.11 5.8-6.11h26.12a4.14 4.14 0 011.2.18.08.08 0 010 .05C49 29 50 30.91 50 34.26v1.78c0 1.67.07 3.12-.59 3.79a2.39 2.39 0 01-1.77.53H16.69a2.5 2.5 0 01-1.87-.6C14 38.92 14 37.11 14 35zm6.75 8.19a2.21 2.21 0 01-2.06 2.26H17a2.21 2.21 0 01-2.1-2.33V41a4.05 4.05 0 001.79.36h4.06zm26.41 2.26h-1.7a2.19 2.19 0 01-2.07-2.28v-1.81h4.24a4.37 4.37 0 001.59-.26v2.1a2.21 2.21 0 01-2.06 2.26z" />
  <path d="M17.61 36.83H24a.5.5 0 00.5-.5v-3.64a.5.5 0 00-.5-.5h-6.39a.5.5 0 00-.5.5v3.64a.5.5 0 00.5.5zm.5-3.64h5.37v2.64h-5.37zM40.38 36.83h6.37a.5.5 0 00.5-.5v-3.64a.5.5 0 00-.5-.5h-6.37a.5.5 0 00-.5.5v3.64a.5.5 0 00.5.5zm.5-3.64h5.37v2.64h-5.37zM28.54 34.1h7.29a.5.5 0 00.5-.5.51.51 0 00-.5-.5h-7.29a.5.5 0 00-.5.5.5.5 0 00.5.5zM28.54 35.93h7.29a.5.5 0 000-1h-7.29a.5.5 0 000 1z" />
</svg>

