<svg xmlns="http://www.w3.org/2000/svg" viewBox="0 0 64 64">
  <path d="M44.54 51.55h-6.69a.75.75 0 01-.75-.75V36.6a.75.75 0 01.75-.75h5.52v-4.77h-5.52a.76.76 0 01-.75-.75v-2.5a2.26 2.26 0 011.95-2.43h4.32v-4.77h-4.32c-3.36 0-6.3 3.39-6.3 7.26v2.44a.76.76 0 01-.75.75h-3.85v4.77H32a.75.75 0 01.75.75v14.2a.75.75 0 01-.75.75H19.46a7.2 7.2 0 01-7-7V19.47a7.2 7.2 0 017-7h25.08a7.2 7.2 0 017 7v25.07a7.2 7.2 0 01-7 7.01zm-5.94-1.49h5.94a5.75 5.75 0 005.52-5.52V19.47a5.75 5.75 0 00-5.52-5.53H19.46a5.75 5.75 0 00-5.52 5.53v25.07a5.75 5.75 0 005.52 5.52h11.79V37.34H27.4a.74.74 0 01-.74-.74v-6.27a.75.75 0 01.74-.75h3.85v-1.69c0-4.75 3.57-8.75 7.8-8.75h5.07a.74.74 0 01.74.74v6.27a.75.75 0 01-.74.75h-5.07c-.11 0-.45.32-.45.93v1.75h5.52a.75.75 0 01.74.75v6.27a.74.74 0 01-.74.74H38.6z" data-name="Facebook (alt)"/>
</svg>
