<svg xmlns="http://www.w3.org/2000/svg" viewBox="0 0 64 63.81">
  <path d="M47.47 30.28c2.24-.18 3.77-1.2 4.35-2.59a7.11 7.11 0 01-4.71.52c-.07-.32-.14-.63-.22-.91-1.06-3.89-4.68-7-8.48-6.64.31-.13.62-.24.93-.35s2.87-.54 2.48-1.41-3.32.57-3.88.75c.74-.28 2-.76 2.11-1.62a6 6 0 00-3.13 1.48 2.12 2.12 0 00.6-1.19c-3 1.95-4.82 5.87-6.26 9.67a14.69 14.69 0 00-3-2.43A76.89 76.89 0 0018 21c-.15 1.56.77 3.64 3.42 5a8.28 8.28 0 00-2.46.29c.34 1.8 1.45 3.27 4.48 4a3.63 3.63 0 00-2.74 1.08 4.63 4.63 0 004.92 2.41c-3.07 1.33-1.25 3.78 1.25 3.41a10.61 10.61 0 01-14.84.4c10.07 13.72 32 8.11 35.23-5.11A6 6 0 0052 30.74a9.72 9.72 0 01-4.53-.46z" data-name="Twitter (alt)"/>
</svg>
