<svg xmlns="http://www.w3.org/2000/svg" viewBox="0 0 64 64">
  <path d="M28.19 45.49a18.68 18.68 0 01-15.35-7.68.61.61 0 01.09-.82.61.61 0 01.82 0 9.27 9.27 0 0012 .57A2.45 2.45 0 0124 36a1.81 1.81 0 01.3-1.56 4.85 4.85 0 01-3.4-2.53.61.61 0 01.11-.69 3.28 3.28 0 01.89-.7A4.75 4.75 0 0119.2 27a.62.62 0 01.45-.71l.66-.14a5.12 5.12 0 01-2-4.29.61.61 0 01.28-.46.64.64 0 01.54-.06 75.53 75.53 0 019.66 4.25 12.33 12.33 0 012.3 1.75c1.35-3.43 3-6.72 5.76-8.47a.61.61 0 01.65 0 .77.77 0 01.18.18 6.15 6.15 0 011.77-.54.63.63 0 01.52.18.6.6 0 01.17.46c.78-.13 1.37 0 1.61.54a1 1 0 010 .84 1.79 1.79 0 01-.95.77 9.26 9.26 0 015.72 6.31c0 .16.09.34.13.53a6.61 6.61 0 003.57-.52.6.6 0 01.88.75 4.2 4.2 0 01-2 2.08 7.1 7.1 0 001.48-.07.61.61 0 01.64.31.62.62 0 01-.09.71 6.2 6.2 0 01-4.43 1.87c-1.7 5.8-7.18 10.39-14.21 11.79a22.88 22.88 0 01-4.3.43zM16.7 40.18a18.23 18.23 0 0015.55 3.68c6.76-1.34 12-5.78 13.38-11.32a.6.6 0 01.59-.46h.08a6.21 6.21 0 002.38-.42 8.72 8.72 0 01-2.47-.52.62.62 0 01-.37-.66.6.6 0 01.55-.51 5.52 5.52 0 002.21-.62 5.68 5.68 0 01-2.71-.14.63.63 0 01-.38-.44c-.06-.3-.13-.58-.19-.83-1-3.53-4.15-6-7.28-5.75a.61.61 0 01-.65-.46.62.62 0 01.09-.48A.61.61 0 0137 21a.6.6 0 01-.82 0c-1.92 1.88-3.2 4.78-4.3 7.69a.61.61 0 01-1 .22 13 13 0 00-2.69-2.17 70.4 70.4 0 00-8.64-3.86 5 5 0 002.83 3.26.61.61 0 01-.38 1.1 5.59 5.59 0 00-1.47.14c.33 1 1.16 2.09 3.58 2.66a.61.61 0 01-.1 1.2 3.21 3.21 0 00-1.83.52A3.8 3.8 0 0026 33.29a.61.61 0 01.65.45.62.62 0 01-.34.72c-.82.35-1.24.8-1.12 1.21a1.73 1.73 0 001.95.81.62.62 0 01.63.32.61.61 0 01-.1.7 10.57 10.57 0 01-10.97 2.68z" data-name="Twitter (alt)"/>
</svg>
