<svg xmlns="http://www.w3.org/2000/svg" viewBox="0 0 64 64">
  <path d="M44.9 32v6.8a6.27 6.27 0 01-3.18 5.46 6.19 6.19 0 01-3.31.89H25.59a6.45 6.45 0 01-6.41-5.4 6.54 6.54 0 01-.08-1.08V25.36a6.5 6.5 0 015.35-6.42 7.68 7.68 0 011.17-.09h12.8a6.34 6.34 0 015 2.34 6.2 6.2 0 011.45 3.46 6 6 0 010 .74V32zM20 32v6.19a5.7 5.7 0 00.61 2.81A5.83 5.83 0 0026 44.26h12.05a6.05 6.05 0 001.71-.26 6 6 0 002.79-1.81A5.8 5.8 0 0044 38.37V25.63a5.52 5.52 0 00-.32-1.84 6 6 0 00-2.5-3.14 5.64 5.64 0 00-3.08-.92H25.51A6.06 6.06 0 0020 25.81V32" />
  <path d="M38.6 32a6.61 6.61 0 11-6.6-6.61A6.61 6.61 0 0138.6 32m-6.4-5.66a5.43 5.43 0 00-3.25.94 5.59 5.59 0 00-2.44 5.38 5.38 5.38 0 001.4 3.13 5.19 5.19 0 004.64 1.81 5.31 5.31 0 004.62-3.67 5.4 5.4 0 00-.57-5 5.28 5.28 0 00-4.4-2.56M38 24.58a1.3 1.3 0 111.29 1.29A1.3 1.3 0 0138 24.58" />
</svg>
