<svg xmlns="http://www.w3.org/2000/svg" viewBox="0 0 64 64">
  <path d="M50.77 32c0 3.3.06 6.6 0 9.89a9.1 9.1 0 01-4.62 8 9 9 0 01-4.82 1.31H22.67a9.39 9.39 0 01-9.33-7.86 10.41 10.41 0 01-.12-1.58V22.39a9.26 9.26 0 013.17-7.11A9 9 0 0121 13a9.67 9.67 0 011.7-.14h18.63a9.21 9.21 0 017.28 3.4 9 9 0 012.11 5 9.76 9.76 0 01.05 1.08v9.62zm-34.64 0v8.15a7.92 7.92 0 007.92 8c5.29.05 10.59 0 15.88 0a7.89 7.89 0 006-2.72 7.54 7.54 0 002-5.06V23.6a7.39 7.39 0 00-.42-2.43A7.88 7.88 0 0044.13 17a7.49 7.49 0 00-4.05-1.2H24a4.87 4.87 0 00-.54 0 7.94 7.94 0 00-7.36 8V32" class="cls-1"/>
  <path d="M41.61 32A9.62 9.62 0 1132 22.38 9.62 9.62 0 0141.61 32m-9.35-7.25A6.83 6.83 0 0028.1 26a7.1 7.1 0 00-3.1 6.85 6.76 6.76 0 001.79 4 6.68 6.68 0 005.94 2.32 6.81 6.81 0 005.91-4.7A7 7 0 0037.9 28a6.8 6.8 0 00-5.64-3.28M39.07 22A2.89 2.89 0 1142 24.89 2.88 2.88 0 0139.07 22" class="cls-1"/>
</svg>
