<svg xmlns="http://www.w3.org/2000/svg" viewBox="0 0 64 64">
  <path d="M51.25 51.15H43a.75.75 0 01-.74-.75V37.11c0-4.86-2.59-4.86-3.44-4.86a3.8 3.8 0 00-3.54 2.55 4.84 4.84 0 00-.22 1.73V50.4a.76.76 0 01-.75.75h-8.26a.73.73 0 01-.52-.22.77.77 0 01-.22-.54c0-.22.11-22.5 0-24.78a.72.72 0 01.2-.55.75.75 0 01.54-.24h8.26a.76.76 0 01.75.75v1.35a8.79 8.79 0 016.69-2.68C48.17 24.24 52 28.7 52 36.16V50.4a.75.75 0 01-.75.75zm-7.5-1.5h6.76V36.16c0-6.63-3.19-10.43-8.76-10.43A7.43 7.43 0 0035 29.42a.76.76 0 01-1.43-.53v-2.57h-6.75c.07 4.08 0 19.66 0 23.33h6.77V36.53a6.23 6.23 0 01.32-2.29 5.24 5.24 0 014.93-3.48c1.84 0 4.93.82 4.93 6.35zm-22.26 1.5h-8.25a.75.75 0 01-.75-.75V25.57a.75.75 0 01.75-.75h8.25a.75.75 0 01.74.75V50.4a.75.75 0 01-.74.75zM14 49.65h6.76V26.32H14zm3.38-26.72a5 5 0 01-5.36-5c0-2.92 2.28-5 5.42-5a5.05 5.05 0 015.36 5c-.02 2.88-2.3 5-5.44 5zm.06-8.58c-2.31 0-3.93 1.45-3.93 3.54a3.53 3.53 0 003.82 3.55c2.36 0 4-1.46 4-3.55a3.53 3.53 0 00-3.91-3.54z"/>
</svg>
