
<svg xmlns="http://www.w3.org/2000/svg" viewBox="0 0 64 64">
  <path d="M45.78 42.69a4.8 4.8 0 10-6.56-6.28 7.85 7.85 0 00-5-4.66 4.82 4.82 0 10-4.45 0 7.79 7.79 0 00-5 4.66 4.81 4.81 0 10-6.58 6.28 7.81 7.81 0 00-5.48 6.68.5.5 0 00.45.55.49.49 0 00.55-.45 6.74 6.74 0 0113.42 0 .49.49 0 00.49.45h.05a.5.5 0 00.45-.55 7.86 7.86 0 00-5.5-6.67 4.79 4.79 0 002.58-3.95.49.49 0 00.08-.21 6.74 6.74 0 0113.42 0 .49.49 0 00.08.21 4.78 4.78 0 002.56 3.94 7.8 7.8 0 00-5.48 6.68.5.5 0 00.45.55.48.48 0 00.54-.45 6.74 6.74 0 0113.42 0 .51.51 0 00.5.45.5.5 0 00.45-.55 7.85 7.85 0 00-5.44-6.68zm-25.35-.44a3.82 3.82 0 113.82-3.82 3.82 3.82 0 01-3.82 3.82zm7.75-14.75A3.82 3.82 0 1132 31.31a3.82 3.82 0 01-3.82-3.81zm11.57 10.93a3.82 3.82 0 113.82 3.82 3.83 3.83 0 01-3.82-3.82z" />
  <path d="M49.26 35.64a.5.5 0 01-.5-.5 17.52 17.52 0 00-35 0 .5.5 0 01-1 0 18.52 18.52 0 0137 0 .5.5 0 01-.5.5z" />
</svg>
