<svg xmlns="http://www.w3.org/2000/svg" viewBox="0 0 64 64">
  <path d="M48.7 39.9a5.81 5.81 0 10-7.83-7.46 9.55 9.55 0 00-6.43-6 5.82 5.82 0 10-4.89 0 9.46 9.46 0 00-6.42 6 5.81 5.81 0 10-7.83 7.46 9.52 9.52 0 00-6.93 8.21.5.5 0 001 .1 8.41 8.41 0 0116.75 0 .52.52 0 00.5.45h.05a.49.49 0 00.45-.55 9.53 9.53 0 00-6.93-8.19 5.83 5.83 0 003.36-5 .48.48 0 00.07-.21 8.42 8.42 0 0116.76 0 .43.43 0 00.07.2 5.82 5.82 0 003.36 5 9.49 9.49 0 00-6.93 8.21.49.49 0 00.45.54.5.5 0 00.55-.44 8.41 8.41 0 0116.75 0 .52.52 0 00.5.45.5.5 0 00.45-.55 9.55 9.55 0 00-6.88-8.22zm-30.95-.45a4.82 4.82 0 114.82-4.82 4.82 4.82 0 01-4.82 4.82zm9.43-18.29A4.82 4.82 0 1132 26a4.83 4.83 0 01-4.82-4.84zm14.25 13.47a4.82 4.82 0 114.82 4.82 4.83 4.83 0 01-4.82-4.82z"/>
</svg>
