<svg xmlns="http://www.w3.org/2000/svg" viewBox="0 0 64 64">
  <path d="M23.31 37.31h-.07c-2.67-.39-5-2.8-5.71-5.85a8.61 8.61 0 01.22-4.74 10.47 10.47 0 012.5-3.83c.56-.59 1.08-1.07 1.55-1.49.24-.22.46-.42.65-.61A7.52 7.52 0 0023.86 19a12.93 12.93 0 001.71-5.61.51.51 0 01.3-.41.5.5 0 01.5.06 8.07 8.07 0 012.84 7.63 9.86 9.86 0 01-1.64 4.21 16.63 16.63 0 01-2.46 2.71 11.13 11.13 0 00-1.51 1.63 5.26 5.26 0 00-.7 1.83 8.58 8.58 0 00.86 5.49.51.51 0 01-.05.52.49.49 0 01-.4.25zm3.14-22.83a13.38 13.38 0 01-1.74 5.08 8.89 8.89 0 01-1.58 2l-.66.61c-.45.41-1 .87-1.49 1.44A9.35 9.35 0 0018.7 27a7.57 7.57 0 00-.2 4.19 6.72 6.72 0 003.94 4.84 9.3 9.3 0 01-.53-5.16 6.35 6.35 0 01.85-2.2A12.55 12.55 0 0124.37 27a16.69 16.69 0 002.37-2.6 8.87 8.87 0 001.48-3.79 7.46 7.46 0 00-1.77-6.13zM45.05 47.44a7.51 7.51 0 01-6.45-4.5 8.58 8.58 0 01-.8-4.67A10.49 10.49 0 0139.42 34c.41-.69.82-1.27 1.18-1.78.19-.27.36-.51.51-.74a7.33 7.33 0 001-2 12.89 12.89 0 00.47-5.84.51.51 0 01.2-.46.5.5 0 01.5 0 8 8 0 014.41 6.83A9.78 9.78 0 0147 34.4a17.17 17.17 0 01-1.8 3.16 12 12 0 00-1.14 1.93 5.46 5.46 0 00-.3 1.94 8.55 8.55 0 002 5.18.52.52 0 01.07.52.5.5 0 01-.43.29zm-1.39-23a13.4 13.4 0 01-.6 5.34A9 9 0 0141.93 32c-.14.2-.31.46-.51.73-.35.5-.75 1.06-1.15 1.73a9.54 9.54 0 00-1.48 3.88 7.69 7.69 0 00.71 4.13 6.7 6.7 0 004.89 3.88 9.19 9.19 0 01-1.62-4.92 6.15 6.15 0 01.35-2.33 12.62 12.62 0 011.19-2.06l.06-.08a16 16 0 001.7-3 8.87 8.87 0 00.63-4 7.29 7.29 0 00-3.04-5.51z" class="cls-1"/>
  <path d="M35.54 51.05c-3.87 0-7.79-2.73-9.69-6.8a13 13 0 01-1.18-7.06 15.92 15.92 0 012.48-6.47c.64-1.06 1.27-1.94 1.83-2.72.29-.41.56-.79.79-1.14a11.52 11.52 0 001.58-3.14 20.13 20.13 0 00.78-9.1.51.51 0 01.2-.47.53.53 0 01.5-.05c3.7 1.69 6.28 5.74 6.59 10.32a14.78 14.78 0 01-1.09 6.76A25 25 0 0135.56 36l-.07.11A17.9 17.9 0 0033.78 39a8.41 8.41 0 00-.49 3.1 13.56 13.56 0 003.14 8.15.5.5 0 01.07.51.53.53 0 01-.43.3zm-2.33-35.62a20.73 20.73 0 01-.91 8.63 13.45 13.45 0 01-1.71 3.38c-.22.33-.5.72-.8 1.14-.54.76-1.16 1.63-1.79 2.66a14.94 14.94 0 00-2.33 6.07 12 12 0 001.08 6.51c1.66 3.56 5 6 8.29 6.22a14.24 14.24 0 01-2.75-7.93 9.52 9.52 0 01.55-3.48 19.3 19.3 0 011.82-3.1l.08-.11a26.1 26.1 0 002.67-4.62 13.81 13.81 0 001-6.3 11.34 11.34 0 00-5.2-9.07z" class="cls-1"/>
</svg>
