<svg xmlns="http://www.w3.org/2000/svg" viewBox="0 0 64 64">
  <path d="M47.3 37.35h-.87v-3.72a7 7 0 00-3-5.48 7.09 7.09 0 00-4.36-1.33H28.82V24h.74a1.05 1.05 0 001.17-.92 1.62 1.62 0 000-.22v-3.17a1.06 1.06 0 00-.9-1.2.86.86 0 00-.32 0h-2.72v-1.41h6.94a1 1 0 001-1v-1.79a1 1 0 00-1-1H15.54a1 1 0 00-1 1V16a1 1 0 001 1h6.8v1.39h-2.61a1 1 0 00-1.13.85.74.74 0 000 .21v3.44a1 1 0 00.91 1.11h.85v14.9h-.63a1 1 0 00-1.18.9 1.31 1.31 0 000 .28v2.61a1.06 1.06 0 00.89 1.22.93.93 0 00.29 0h.57v3.39c0 .38 0 1.41 1.21 1.41h6.07c1.08 0 1.22-.77 1.22-1.44v-3.35h.68a1.06 1.06 0 001.24-.84 1.22 1.22 0 000-.33v-2.64a1 1 0 00-.79-1.17.86.86 0 00-.39 0h-.69v-3.89h8.2a1.15 1.15 0 011.16 1v1.29h-.78a1 1 0 00-1.16.81 1 1 0 000 .35v2.76a1.07 1.07 0 00.92 1.22.81.81 0 00.31 0h.69v3.84c0 .91.41 1.37 1.2 1.37h5.84a1.18 1.18 0 001.22-1.14 2.28 2.28 0 000-.26v-3.8h.81a1.05 1.05 0 001.15-.93 1.09 1.09 0 000-.18v-2.94a1 1 0 00-.9-1.09zM15.5 16v-1.75h18.2V16zm7.84 1h2.45v1.39h-2.44v-1.35zm4.48 30.19a2.94 2.94 0 010 .42h-6.46a1.34 1.34 0 010-.4v-3.29h6.5zm1.85-7.33a.49.49 0 010 .17v2.8h-10.1a.54.54 0 010-.18V40h10.1zm-10.11-17v-3.43h10.17a.57.57 0 010 .26v3.36h-10zM37 34.05h-8.68a.5.5 0 00-.5.5v4.39h-6.49V24h6.49v3.28a.5.5 0 00.5.5H39A6.1 6.1 0 0142.8 29a6 6 0 012.61 4.73v3.66h-6.19v-1.46A2.13 2.13 0 0037 34.05zm8.41 8.44v3.81a2.41 2.41 0 010 .38h-6.14a.74.74 0 01-.05-.36v-3.83h6.22zm2-1.12v.1H37.29a.81.81 0 010-.22v-2.89H47.4v.1z"/>
</svg>
