<svg xmlns="http://www.w3.org/2000/svg" viewBox="0 0 64 64">
  <path d="M49.43 46.28V38.6A12.67 12.67 0 0037 25.94V24.4a1 1 0 00-1-1h-1.11a.53.53 0 000-.12v-4.49a.53.53 0 000-.12h4.87a1.45 1.45 0 001.45-1.46V14a1.45 1.45 0 00-1.45-1.46H24.4A1.46 1.46 0 0022.94 14v3.22a1.46 1.46 0 001.46 1.46h4.87a.53.53 0 000 .12v4.49a.53.53 0 000 .12h-1.15a1 1 0 00-1 1v1.54A12.67 12.67 0 0014.73 38.6v7.68h-2.47v3.38h12.8v-3.38h-2.47v-7.53a5 5 0 014.53-4.94v3.42a1 1 0 001 1H36a1 1 0 001-1v-3.42a5 5 0 014.53 4.94v7.53H39.1v3.38h12.8v-3.38zM23.81 17.21V14a.59.59 0 01.59-.6h15.36a.6.6 0 01.59.6v3.22a.6.6 0 01-.59.6H24.4a.59.59 0 01-.59-.61zm6.3 6.07v-4.49a.12.12 0 01.12-.12h3.7a.12.12 0 01.12.12v4.49a.12.12 0 01-.12.12h-3.7a.12.12 0 01-.12-.12zm-8.38 15.47v8.39h2.46v1.66H13.12v-1.66h2.47V38.6a11.83 11.83 0 0111.53-11.8v6.14a5.84 5.84 0 00-5.39 5.81zm14.45-1.52a.14.14 0 01-.14.13h-7.92a.13.13 0 01-.14-.13V24.4a.13.13 0 01.14-.13H36a.14.14 0 01.14.13v12.83zM51 48.8H40v-1.66h2.46v-8.39A5.84 5.84 0 0037 32.94v-6.15A11.83 11.83 0 0148.57 38.6v8.54H51z"/>
</svg>
