<svg xmlns="http://www.w3.org/2000/svg" viewBox="0 0 64 64">
  <path d="M52.71 37.52l-1.19-2.1a.5.5 0 00-.68-.18l-5.11 2.89-6.35-11.19L44.49 24a.48.48 0 00.24-.3.51.51 0 000-.38l-1.19-2.09a2.3 2.3 0 00-3.1-.73l-1.56.88-.55-.94-.43.25.43-.25a1.4 1.4 0 00-1.91-.51l-5.52 3.15a1.4 1.4 0 00-.6 1.92l.53.92-1.51.86a2.31 2.31 0 00-1 3.11L29.51 32a.52.52 0 00.3.23h.14a.42.42 0 00.24-.07l5.06-2.87 6.34 11.17-5.1 2.89a.48.48 0 00-.24.3.56.56 0 000 .38l1.23 2.12a2.31 2.31 0 002 1.06 2.25 2.25 0 001.18-.32L42.2 46l.53.9a1.38 1.38 0 001.18.64 1.3 1.3 0 00.71-.2l5.49-3.11a1.39 1.39 0 00.61-1.81l-.53-.91 1.57-.89a2.31 2.31 0 00.95-3.1zM31.36 23.94l5.5-3.14a.46.46 0 01.2-.05.39.39 0 01.34.2l.33.57-6.23 3.55-.34-.56a.43.43 0 01.2-.57zm-1.22 7.11l-.93-1.64a1.31 1.31 0 01.58-1.75l11.09-6.29a1.35 1.35 0 01.67-.18 1.28 1.28 0 011.08.58l.93 1.64zm19.49 12.33l-5.52 3.13a.4.4 0 01-.53-.11l-.33-.56 6.25-3.51.32.55a.41.41 0 01-.19.5zM36.3 29.1l2.39-1.35 6.16 10.86L42.46 40zm15 10.63L40.17 46a1.33 1.33 0 01-1.79-.39l-1-1.66 5.08-2.88 3.27-1.85 5.1-2.89 1 1.67a1.32 1.32 0 01-.57 1.73z" />
  <path d="M35.39 34.78l-1.1-2.14a.5.5 0 00-.67-.21l-5.27 2.7-5.9-11.47L27.69 21a.5.5 0 00.21-.67l-1.1-2.1a2.3 2.3 0 00-3.07-.85l-1.63.83-.47-1v-.06a1.38 1.38 0 00-1.87-.49l-5.55 2.9a1.4 1.4 0 00-.67 1.85l.44.94-1.57.81a2.32 2.32 0 00-1.11 3.07l1.1 2.14a.51.51 0 00.29.25h.16a.49.49 0 00.23-.06l5.2-2.69 5.9 11.45L18.91 40a.48.48 0 00-.25.29.5.5 0 000 .38l1.11 2.11a2.33 2.33 0 002 1.16 2.23 2.23 0 001.11-.3l1.56-.8.51 1a1.41 1.41 0 001.22.7 1.35 1.35 0 00.67-.18l5.6-2.89a1.39 1.39 0 00.68-1.82l-.5-1 1.57-.81a2.32 2.32 0 001.19-3s.02-.05.01-.06zM14.61 20.41l5.59-2.92a.35.35 0 01.2 0h.09a.36.36 0 01.24.18l.32.66-6.37 3.26-.28-.59a.41.41 0 01.21-.59zm-1.6 7l-.86-1.68A1.31 1.31 0 0112.8 24l11.38-5.84a1.39 1.39 0 01.62-.16 1.32 1.32 0 011.12.64l.86 1.64zm8.74-3l5.71 11.11L25 36.84l-5.7-11.11zM32 40.55l-5.64 2.9a.39.39 0 01-.53-.12l-.31-.6L32 39.44l.3.59a.4.4 0 01-.3.52zm1.75-3.64l-11.31 5.84a1.31 1.31 0 01-1.76-.47l-.87-1.65 13.82-7.09.86 1.68a1.32 1.32 0 01-.7 1.69z" />
</svg>
