<svg xmlns="http://www.w3.org/2000/svg" viewBox="0 0 64 64">
  <path d="M24.41 40.71a1.95 1.95 0 101.95 1.95 2 2 0 00-1.95-1.95zm0 3.06a1.12 1.12 0 111.12-1.11 1.11 1.11 0 01-1.12 1.11zM39.59 40.71a2 2 0 101.94 1.95 2 2 0 00-1.94-1.95zm0 3.06a1.12 1.12 0 111.11-1.11 1.12 1.12 0 01-1.11 1.11zM35.09 38.13H34V37a.79.79 0 00-.79-.78h-2.37a.79.79 0 00-.79.78v1.15h-1.14a.79.79 0 00-.79.78v2.33a.79.79 0 00.79.78h1.14v1.15a.79.79 0 00.79.78h2.32a.79.79 0 00.79-.78V42h1.14a.79.79 0 00.79-.78v-2.31a.79.79 0 00-.79-.78zm-2 3.06v1.93l-2.28.05v-2h-.41l-1.4.07v-2.28h2v-1.93l2.12-.03v2h1.93v2.23z" class="cls-1"/>
  <path d="M42 20.06h-7a3.06 3.06 0 00-6.06 0H22a3.56 3.56 0 00-3.55 3.55v23.13a1.93 1.93 0 001.93 1.93h1.31v2.07A1.29 1.29 0 0023 52h1.5a1.29 1.29 0 001.29-1.29v-2.04h12.42v2.07A1.29 1.29 0 0039.5 52H41a1.29 1.29 0 001.29-1.29v-2.04h1.31a1.93 1.93 0 001.93-1.93V23.61A3.56 3.56 0 0042 20.06zm-10-1.83a2.25 2.25 0 012.21 1.83h-4.42A2.25 2.25 0 0132 18.23zm-10 2.66h20a2.72 2.72 0 012.72 2.72v1.08H19.28v-1.08A2.72 2.72 0 0122 20.89zm-2.72 10.88v-6.25h12.3v6.25zm13.14-6.25h12.3v6.25h-12.3zM25 50.74a.46.46 0 01-.46.46H23a.46.46 0 01-.46-.46v-2.07H25zm16.52 0a.46.46 0 01-.46.46H39.5a.46.46 0 01-.46-.46v-2.07h2.44zm2.14-2.9H20.38a1.1 1.1 0 01-1.1-1.1V32.6h25.44v14.14a1.1 1.1 0 01-1.1 1.1zM35.46 17.69a.48.48 0 00.23-.07l3.16-2.07A.4.4 0 0039 15a.41.41 0 00-.57-.13l-3.17 2.07a.42.42 0 00.23.77zM25.72 15.55l3.16 2.07a.48.48 0 00.23.07.45.45 0 00.35-.19.42.42 0 00-.13-.58l-3.16-2.07a.42.42 0 00-.58.13.41.41 0 00.13.57zM32.28 16.58a.42.42 0 00.42-.42v-3.78a.42.42 0 00-.83 0v3.78a.42.42 0 00.41.42z" class="cls-1"/>
</svg>
