<svg xmlns="http://www.w3.org/2000/svg" viewBox="0 0 64 64">
  <path d="M50.11 27.91A2 2 0 0048 26H38.81a1 1 0 01-.9-1v-9.43a2 2 0 00-1.84-2.05h-8.25A2 2 0 0026 15.56v9.37a1 1 0 01-.91 1L25 26h-9.06a1.88 1.88 0 00-1.42.54 2 2 0 00-.63 1.38V36.52a2 2 0 002 1.84h9.22a1 1 0 01.89 1v9.09a1.94 1.94 0 001.83 2h8.24a2 2 0 001.84-2v-9.07a.94.94 0 01.88-1h9.08a.42.42 0 00.16 0h.08a2 2 0 002-1.89v-8.56zm-1.93 9.49a.28.28 0 00-.13 0h-9.38a.65.65 0 00-.2 0 2 2 0 00-1.56 2v9.15a1 1 0 01-.89 1h-8.13a.94.94 0 01-.89-1v-9.17a2 2 0 00-1.45-1.94.56.56 0 00-.23-.06H16a1 1 0 01-1.06-.92V28a1 1 0 011-.95h9.43a.5.5 0 00.31-.12A2 2 0 0027 25v-9.45a1 1 0 01.89-1H36a1 1 0 01.9 1v9.39a2 2 0 001.51 2 .44.44 0 00.25.08h9.45a1 1 0 011 .95v8.5a1 1 0 01-.93.93z"/>
</svg>
