<svg xmlns="http://www.w3.org/2000/svg" viewBox="0 0 64 64">
  <path d="M42.15 33.88a6.47 6.47 0 00-.76-.05 5.71 5.71 0 00-2.43.55c.48-5 .32-9.84-2.32-13.53a16.43 16.43 0 019.78 15.39 6.41 6.41 0 00-4.27-2.36m-10.41-4.62a8.84 8.84 0 00-5.12.7c1.5-4.45 3.05-8 7.38-9.83 3.28 2.95 4 7.22 3.59 12.65a8.74 8.74 0 00-5.85-3.52m-10.66-2.63a5.21 5.21 0 00-3.68.46c2.64-5.23 7.75-7.91 14.22-7.4C28 22 26.54 25.51 25.16 29.6a6.44 6.44 0 00-4.08-3m14.29-7.81l.63-2.53a.75.75 0 00-1.46-.37l-.65 2.6-.51-.11C24.58 17.05 17.53 21.12 15 29a.75.75 0 001.23.77c1.58-1.52 3-2.07 4.5-1.71a5 5 0 013.78 3.82v.05a.84.84 0 00.12.23l.06.07a.73.73 0 00.29.19.69.69 0 00.32 0h.09a.76.76 0 00.22-.11h.06a7.08 7.08 0 015.13-1.62l-4.3 17.14a.76.76 0 00.55.91h.18a.76.76 0 00.73-.57l4.32-17.25a6.51 6.51 0 015 5 .62.62 0 00.14.32.88.88 0 00.27.19H38.12a.7.7 0 00.28-.12 4.41 4.41 0 013.42-1 5 5 0 014.28 3.7.75.75 0 00.73.59.74.74 0 00.87-.6c1.41-9.23-4-17.86-12.33-20.2"/>
</svg>
