<svg xmlns="http://www.w3.org/2000/svg" viewBox="0 0 64 64">
  <path d="M53 30.12h-9.58v-13.3h1.65a.5.5 0 00.5-.5v-2.84a.5.5 0 00-.5-.5H22a.5.5 0 00-.5.5v2.84a.5.5 0 00.5.5h1.6v13.27H14a.5.5 0 00-.5.5v2.84a.5.5 0 00.5.5h.9v16.59a.5.5 0 00.5.5h36.2a.5.5 0 00.5-.5V34h.9a.5.5 0 00.5-.5v-2.88a.5.5 0 00-.5-.5zM22.46 14h22.11v1.84H22.46zm-8 17.11h9.1v1.83H14.5zM15.9 50V33.93h7.7V50zm8.7-33.19h17.82V50h-6.16v-4.91a.5.5 0 00-.5-.5H32a.5.5 0 00-.5.5V50h-6.9zM32.48 50v-4.41h2.78V50zm18.62 0h-7.68V34h7.68zm1.41-17h-.71a.46.46 0 00-.2 0h-8.18v-1.8h9.09z" />
  <path d="M36 24.75h3.78a.5.5 0 00.5-.5v-4.46a.5.5 0 00-.5-.5H36a.5.5 0 00-.5.5v4.46a.5.5 0 00.5.5zm.5-4.46h2.78v3.46h-2.77zM27.22 24.75H31a.5.5 0 00.5-.5v-4.46a.5.5 0 00-.5-.5h-3.78a.5.5 0 00-.5.5v4.46a.5.5 0 00.5.5zm.5-4.46h2.77v3.46h-2.77zM36 33.87h3.78a.5.5 0 00.5-.5v-4.46a.5.5 0 00-.5-.5H36a.5.5 0 00-.5.5v4.46a.5.5 0 00.5.5zm.5-4.46h2.78v3.46h-2.77zM27.22 33.87H31a.5.5 0 00.5-.5v-4.46a.5.5 0 00-.5-.5h-3.78a.5.5 0 00-.5.5v4.46a.5.5 0 00.5.5zm.5-4.46h2.77v3.46h-2.77zM36 43h3.78a.51.51 0 00.5-.5V38a.51.51 0 00-.5-.5H36a.51.51 0 00-.5.5v4.47a.51.51 0 00.5.53zm.5-4.47h2.78V42h-2.77zM31.49 42.49V38a.5.5 0 00-.5-.5h-3.77a.5.5 0 00-.5.5v4.47a.5.5 0 00.5.5H31a.5.5 0 00.49-.48zm-1-.5h-2.77v-3.47h2.77zM22.69 43.82h-4.46a.5.5 0 00-.5.5v3.77a.5.5 0 00.5.5h4.46a.5.5 0 00.5-.5v-3.77a.5.5 0 00-.5-.5zm-.5 3.77h-3.46v-2.77h3.46zM22.69 35h-4.46a.51.51 0 00-.5.5v3.8a.51.51 0 00.5.5h4.46a.5.5 0 00.5-.5v-3.78a.5.5 0 00-.5-.52zm-.5 3.78h-3.46V36h3.46zM44.36 48.59h4.46a.5.5 0 00.5-.5v-3.77a.5.5 0 00-.5-.5h-4.46a.5.5 0 00-.5.5v3.77a.5.5 0 00.5.5zm.5-3.77h3.46v2.77h-3.46zM44.36 39.8h4.46a.51.51 0 00.5-.5v-3.78a.51.51 0 00-.5-.5h-4.46a.5.5 0 00-.5.5v3.78a.5.5 0 00.5.5zm.5-3.78h3.46v2.78h-3.46z" />
</svg>
