<svg xmlns="http://www.w3.org/2000/svg" viewBox="0 0 64 64">
  <path d="M50.62 26L47 17.46a2.31 2.31 0 00-2.1-1.39L26.62 16v-3.22a.5.5 0 00-.5-.5H23a.5.5 0 00-.5.5V16h-3.37A2.29 2.29 0 0017 17.35L13.2 26a.5.5 0 00.45.7h1.5V51a.51.51 0 00.5.5h32.66a.5.5 0 00.5-.5V26.68h1.35a.49.49 0 00.46-.69zm-14 24.55v-6.77h3.73v6.76zm11.18 0h-6.44v-7.27a.5.5 0 00-.5-.5h-4.73a.5.5 0 00-.5.5v7.26H16.15V26.76h31.66zM14.42 25.68L18 17.76a1.28 1.28 0 011.13-.76H23a.5.5 0 00.5-.5v-3.22h2.08v3.21a.5.5 0 00.5.5l18.75.08a1.28 1.28 0 011.18.79l3.35 7.82z" />
  <path d="M27.49 35.85h4.42a.5.5 0 00.5-.5v-4.93a.51.51 0 00-.5-.5h-4.42a.5.5 0 00-.5.5v4.93a.5.5 0 00.5.5zm.5-4.93h3.42v3.93H28zM36.44 35.85h4.42a.5.5 0 00.5-.5v-4.93a.5.5 0 00-.5-.5h-4.42a.51.51 0 00-.5.5v4.93a.5.5 0 00.5.5zm.5-4.93h3.42v3.93h-3.42zM19.62 35.85h4.43a.5.5 0 00.5-.5v-4.93a.51.51 0 00-.5-.5h-4.43a.51.51 0 00-.5.5v4.93a.5.5 0 00.5.5zm.5-4.93h3.43v3.93h-3.43zM27.49 47.21h4.42a.51.51 0 00.5-.5v-6.45a.5.5 0 00-.5-.5h-4.42a.5.5 0 00-.5.5v6.45a.5.5 0 00.5.5zm.5-6.45h3.42v5.45H28zM19.62 47.21h4.43a.51.51 0 00.5-.5v-6.45a.5.5 0 00-.5-.5h-4.43a.5.5 0 00-.5.5v6.45a.51.51 0 00.5.5zm.5-6.45h3.43v5.45h-3.43zM19.62 20h24.21a.5.5 0 00.5-.5.51.51 0 00-.5-.5H19.62a.51.51 0 00-.5.5.5.5 0 00.5.5zM16.75 22.81a.51.51 0 00.5.5h29a.51.51 0 00.5-.5.5.5 0 00-.5-.5h-29a.5.5 0 00-.5.5z" />
</svg>
