<svg viewBox="0 0 42 40" fill="none" xmlns="http://www.w3.org/2000/svg">
<path fill-rule="evenodd" clip-rule="evenodd" d="M33.3766 36.8219C28.7408 40.5184 21.5495 39.4512 15.5427 34.7478L15.3538 34.0467C15.1848 34.0941 15.0168 34.14 14.8498 34.1846C13.4498 33.0039 12.1244 31.6216 10.9233 30.0527C9.12161 27.699 7.78689 25.1698 6.92671 22.6437C9.69246 20.2212 13.2836 17.813 17.358 15.7848C27.9281 10.5232 38.4704 9.45153 40.3784 13.4441C41.7254 16.2629 38.3993 21.2014 32.2037 25.7784L34.239 21.092L33.2498 20.643L30.0194 28.0813L39.1597 26.4132L38.9689 25.3252L33.2529 26.3684C39.7979 21.4392 42.9504 16.3061 41.3512 12.9598C39.1109 8.27187 28.3635 9.07673 16.8838 14.7912C12.8412 16.8035 9.32465 19.1177 6.56277 21.4763C4.82474 15.3372 5.90758 9.37895 9.91978 6.17965C14.308 2.68056 21.1701 3.37321 27.2176 7.84661L20.5942 9.9637L20.8826 10.8865L28.7757 8.36356L27.3306 0L26.3996 0.161649L27.5675 6.92045C21.2215 2.32339 14.0105 1.68744 9.33496 5.41568C4.92599 8.93135 3.77577 15.4986 5.78536 22.1594C1.22789 26.2819 -0.969022 30.4641 0.406152 33.3417C1.91642 36.502 7.38037 37.2495 14.7668 35.3471C21.1554 40.4474 28.9324 41.596 33.9614 37.5859C38.399 34.0474 37.4904 33.5416 33.3766 36.8219ZM10.1808 30.6448C11.2729 32.0714 12.4653 33.3491 13.7238 34.4679C7.34946 35.9728 2.58426 35.3808 1.37851 32.8577C0.275083 30.5487 2.25722 26.96 6.16958 23.3263C7.06313 25.8292 8.40195 28.321 10.1808 30.6448ZM21.2899 17.4179C17.4234 17.4179 14.2899 20.6163 14.2899 24.5622C14.2899 28.5084 17.4237 31.7065 21.2899 31.7065C25.1564 31.7065 28.2899 28.5082 28.2899 24.5622C28.2899 20.6161 25.1561 17.4179 21.2899 17.4179Z" fill="#2191E5"/>
</svg>
