<svg viewBox="0 0 14 14" fill="none" xmlns="http://www.w3.org/2000/svg">
<path d="M6.64157 0.143585C6.34418 0.143585 6.10311 0.384663 6.10311 0.682047V9.01025L3.68003 6.58717C3.4669 6.37901 3.12538 6.38302 2.91721 6.59615C2.70904 6.80927 2.71306 7.1508 2.92618 7.35897L6.26464 10.6795C6.47402 10.8847 6.80911 10.8847 7.01849 10.6795L10.357 7.35897C10.4948 7.22431 10.5504 7.02632 10.5027 6.8396C10.455 6.65287 10.3113 6.50576 10.1258 6.4537C9.94021 6.40163 9.74097 6.45251 9.60311 6.58717L7.18003 9.01025V0.682047C7.18003 0.384663 6.93895 0.143585 6.64157 0.143585Z"/>
<path d="M12.6173 9.29744C12.3199 9.29744 12.0788 9.53852 12.0788 9.8359V12.241C12.0788 12.5384 11.8378 12.7795 11.5404 12.7795H1.74038C1.443 12.7795 1.20192 12.5384 1.20192 12.241V10.0154C1.20192 9.718 0.960846 9.47693 0.663462 9.47693C0.366077 9.47693 0.125 9.718 0.125 10.0154V12.241C0.125 13.1332 0.848232 13.8564 1.74038 13.8564H11.5404C12.4325 13.8564 13.1558 13.1332 13.1558 12.241V9.8359C13.1558 9.53852 12.9147 9.29744 12.6173 9.29744V9.29744Z"/>
</svg>
