<svg viewBox="0 0 18 20" fill="none" xmlns="http://www.w3.org/2000/svg">
<path d="M8.93219 20C4.00819 20 0.000186577 15.912 0.000186577 10.886C-0.0179561 8.04732 1.28793 5.36234 3.53219 3.62401C3.79702 3.41807 4.13389 3.32802 4.46616 3.37436C4.79842 3.42069 5.0978 3.59947 5.29619 3.87001C5.7164 4.43651 5.6091 5.23461 5.05419 5.67001C3.44271 6.91889 2.50513 8.84729 2.51819 10.886C2.51819 14.486 5.39619 17.432 8.93219 17.432C12.4682 17.432 15.3462 14.496 15.3462 10.886C15.3578 8.84625 14.4179 6.91766 12.8042 5.67001C12.2493 5.23461 12.142 4.43651 12.5622 3.87001C12.7606 3.59769 13.0612 3.41768 13.395 3.3713C13.7287 3.32491 14.067 3.41612 14.3322 3.62401C16.5764 5.36234 17.8823 8.04732 17.8642 10.886C17.8642 15.912 13.8562 20 8.93219 20Z" fill="white"/>
<path d="M8.9313 11.78C8.58145 11.7639 8.25232 11.6095 8.01637 11.3507C7.78043 11.0918 7.65702 10.7498 7.6733 10.4V1.374C7.6428 0.647748 8.20518 0.0335014 8.9313 0C9.65742 0.0335014 10.2198 0.647748 10.1893 1.374V10.4C10.2056 10.7498 10.0822 11.0918 9.84624 11.3507C9.61029 11.6095 9.28116 11.7639 8.9313 11.78Z" fill="white"/>
</svg>
