<svg xmlns="http://www.w3.org/2000/svg" viewBox="0 0 24 24">
  <path d="M12 3c2.94 0 3.28 0 4.45.07a5.82 5.82 0 012 .39 3.35 3.35 0 011.27.82 3.48 3.48 0 01.82 1.27 6 6 0 01.39 2C21 8.73 21 9.07 21 12s0 3.28-.07 4.45a5.82 5.82 0 01-.39 2 3.35 3.35 0 01-.82 1.27 3.48 3.48 0 01-1.27.82 6 6 0 01-2 .39c-1.16.05-1.5.07-4.45.07s-3.28 0-4.45-.07a5.82 5.82 0 01-2-.39 3.35 3.35 0 01-1.27-.82 3.48 3.48 0 01-.82-1.27 6 6 0 01-.39-2C3 15.31 3 15 3 12V7.57a5.82 5.82 0 01.39-2 3.35 3.35 0 01.82-1.27 3.48 3.48 0 011.27-.82 6 6 0 012-.39C8.72 3 9.06 3 12 3m0-2c-3 0-3.36 0-4.54.07a7.8 7.8 0 00-2.67.51 5.3 5.3 0 00-1.94 1.27 5.26 5.26 0 00-1.27 1.94 7.8 7.8 0 00-.51 2.67C1 8.63 1 9 1 12s0 3.36.07 4.54a7.8 7.8 0 00.51 2.67 5.3 5.3 0 001.27 1.94 5.26 5.26 0 001.94 1.27 7.8 7.8 0 002.67.51C8.63 23 9 23 12 23s3.36 0 4.54-.07a7.8 7.8 0 002.67-.51 5.67 5.67 0 003.21-3.21 7.8 7.8 0 00.51-2.67C23 15.37 23 15 23 12s0-3.36-.07-4.54a7.8 7.8 0 00-.51-2.67 5.3 5.3 0 00-1.27-1.94 5.26 5.26 0 00-1.94-1.27 7.8 7.8 0 00-2.67-.51C15.36 1 15 1 12 1z"/>
  <path d="M12 6.35A5.65 5.65 0 1017.65 12 5.65 5.65 0 0012 6.35zm0 9.31A3.66 3.66 0 1115.66 12 3.66 3.66 0 0112 15.66z"/>
  <circle cx="17.87" cy="6.13" r="1.32"/>
</svg>
