<svg xmlns="http://www.w3.org/2000/svg" viewBox="0 0 64 64">
  <path d="M36.94 43.08a13.28 13.28 0 01-8.38-3.39.45.45 0 01-.16-.31 16.73 16.73 0 017.19-15.53 16.49 16.49 0 0118.47 0 .5.5 0 01-.14.9 7.6 7.6 0 00-3.84 2.3 6.85 6.85 0 00-1.46 4.26 13.75 13.75 0 01-.91 4.19 12.48 12.48 0 01-8.78 7.38 10.52 10.52 0 01-1.99.2zm-7.39-3.86c1.24 1 4.85 3.52 9.18 2.69a11.59 11.59 0 008.05-6.79 12.81 12.81 0 00.84-3.9 7.78 7.78 0 011.69-4.81 8.16 8.16 0 013.29-2.27 15.46 15.46 0 00-16.46.53 15.7 15.7 0 00-6.83 13.18 29.63 29.63 0 015.89-5.94 29.17 29.17 0 018.22-4.38.51.51 0 01.64.31.5.5 0 01-.31.63 28.18 28.18 0 00-8 4.24 29 29 0 00-6.2 6.51zM26.08 38.32a17.07 17.07 0 01-11.78-5.17 16 16 0 01-4.57-11.68.6.6 0 01.07-.3.52.52 0 01.44-.25 16.87 16.87 0 0116.34 16.89.45.45 0 01-.1.28v.05l-.11.08-.15.06zM10.72 22A15 15 0 0015 32.45a16.08 16.08 0 0010.5 4.84c-.3-1.13-1.56-2.52-2.88-4l-.5-.56a20.4 20.4 0 00-4-3.42.5.5 0 11.54-.84 21.22 21.22 0 014.2 3.6l.5.55c.7.77 1.38 1.53 1.94 2.26A15.85 15.85 0 0010.72 22z"/>
</svg>
