<svg xmlns="http://www.w3.org/2000/svg" viewBox="0 0 64 64">
  <path d="M40.32 12.46H26.54a3.19 3.19 0 00-3.18 3.18v31.82a3.19 3.19 0 003.18 3.18h13.78a3.19 3.19 0 003.18-3.18V15.64a3.19 3.19 0 00-3.18-3.18zm-16 6.74H42.5v26.85H24.36zm2.18-5.74h13.82a2.19 2.19 0 012.18 2.18v2.56H24.36v-2.56a2.19 2.19 0 012.18-2.18zm13.82 36.18H26.54a2.19 2.19 0 01-2.18-2.18v-.41H42.5v.41a2.19 2.19 0 01-2.18 2.18z" />
  <path d="M37.21 16.58a.81.81 0 10-.81-.81.81.81 0 00.81.81zM30.7 16.27h3.61a.5.5 0 000-1H30.7a.5.5 0 000 1z" />
</svg>
