<svg xmlns="http://www.w3.org/2000/svg" viewBox="0 0 64 64">
  <path d="M47.13 20.15a61.13 61.13 0 01-14.33-8.21 2.07 2.07 0 00-2.55 0 61.13 61.13 0 01-14.33 8.21 1.79 1.79 0 00-1.13 1.67v10.09a21.25 21.25 0 0011.9 18.07 45.1 45.1 0 004.69 1.68h.25a43 43 0 004.72-1.7 21.22 21.22 0 0011.87-18V21.82a1.79 1.79 0 00-1.09-1.67zm.13 10.76v.92A20.26 20.26 0 0136 49a46.48 46.48 0 01-4.44 1.59c-1.66-.44-4.39-1.58-4.4-1.58A20.25 20.25 0 0115.8 31.83V21.82a.79.79 0 01.5-.74 62.7 62.7 0 0014.58-8.35 1 1 0 011.31 0 62.7 62.7 0 0014.58 8.35.79.79 0 01.5.74z" />
  <path d="M44.73 21.85a51.47 51.47 0 01-12.08-6.91 1.84 1.84 0 00-1.13-.39h-.18a1.81 1.81 0 00-.91.36 51.69 51.69 0 01-12.08 6.91 1.6 1.6 0 00-1 1.48v8.51a18 18 0 0010.1 15.33 37.79 37.79 0 004 1.42h.25a39.69 39.69 0 004-1.43 18 18 0 0010.02-15.31v-8.49a1.6 1.6 0 00-.99-1.48zm-26.4 9.94V23.33a.6.6 0 01.38-.55 52.58 52.58 0 0012.3-7v31.63c-1.37-.43-3.14-1.17-3.15-1.17a17 17 0 01-9.53-14.45zM44.74 31v.78a17 17 0 01-9.48 14.44S33.38 47 32 47.43V15.7a52.67 52.67 0 0012.33 7.05.6.6 0 01.38.55z" />
</svg>
