<svg xmlns="http://www.w3.org/2000/svg" viewBox="0 0 64 64">
  <path d="M43 39c0-5.74-5.38-6.85-10.49-7.87-4.74-1-9.31-1.83-9.31-6.28 0-3.9 3.53-6.43 8.86-6.43 4.86 0 8.21 2.45 8.55 6.49a.75.75 0 00.76.67.73.73 0 00.77-.72c-.34-4.59-3.87-7.52-9.25-7.78v-3.39a.75.75 0 00-1.5 0V17c-5.91.21-9.73 3.22-9.73 7.83 0 5.57 5.46 6.62 10.47 7.6 4.81.93 9.32 1.88 9.32 6.51 0 4.14-3.78 7-9.12 7-5.58 0-9.41-2.75-9.77-7.13a.76.76 0 00-.78-.68.74.74 0 00-.78.73c.36 4.92 4.35 8.18 10.51 8.44v3a.75.75 0 001.5 0v-3C39 47.05 43 43.74 43 39" data-name="$"/>
</svg>
