<svg xmlns="http://www.w3.org/2000/svg" viewBox="0 0 64 64">
  <path d="M50.81 33.68l-8.68-5.6v-9a.38.38 0 00-.38-.38h-4.83l-1.22-8.25a.38.38 0 00-.38-.32H29.6a.38.38 0 00-.38.32l-1.3 8.22h-5.14a.38.38 0 00-.38.38v8.75a.43.43 0 000 .11L13.19 34a.38.38 0 00-.14.46l8 19.18a.38.38 0 00.35.23h22.26a.39.39 0 00.36-.25L51 34.12a.38.38 0 00-.19-.44zM29.93 10.89H35l.44 3h-6zm-.59 3.72h6.2l.61 4.06H28.7zm-6.18 4.83h18.21v8.15l-9.13-5.89a.38.38 0 00-.41 0l-8.67 5.72zm8.5 3.29v3.92L15.27 37.82l-1.39-3.36zm11.73 30.38H21.61L17.29 42.7l5.65-4.3a.39.39 0 00.08-.54.4.4 0 00-.54-.07L17 42l-1.42-3.43 16.09-11v16.28a.38.38 0 00.76 0V27.53l16.32 10.52-1.32 3.72-5.66-4.33a.37.37 0 00-.53.07.38.38 0 00.07.54l5.85 4.47zM49 37.32l-16.58-10.7v-3.9l17.72 11.43z"/>
</svg>
