<svg xmlns="http://www.w3.org/2000/svg" viewBox="0 0 64 64">
  <path d="M32.45 46.47a.49.49 0 00.49-.5.5.5 0 00-.5-.5 14.31 14.31 0 01-10.19-4.21.5.5 0 00-.71 0 .51.51 0 000 .71 15.34 15.34 0 0010.9 4.5zM22.2 20.16a.48.48 0 00-.7 0A15.3 15.3 0 0017 31a.49.49 0 00.5.49.52.52 0 00.5-.49 14.35 14.35 0 014.2-10.18.49.49 0 000-.66zM47.87 31a.48.48 0 00-.5-.47.52.52 0 00-.5.53 14.36 14.36 0 01-4.22 10.2.5.5 0 00.35.85.52.52 0 00.35-.14A15.36 15.36 0 0047.87 31zM32.44 16.61A14.34 14.34 0 0142.6 20.8a.5.5 0 00.4.2.51.51 0 00.36-.15.51.51 0 000-.71 15.33 15.33 0 00-10.87-4.48.48.48 0 00-.48.5.52.52 0 00.43.45zM38.37 49.62a19.24 19.24 0 01-11.75 0 .5.5 0 10-.31.95 20.11 20.11 0 0012.37 0 .5.5 0 00.32-.63.49.49 0 00-.63-.32zM38.3 13.41a19.22 19.22 0 019.53 6.88.5.5 0 00.8-.6 20.13 20.13 0 00-10-7.23.5.5 0 00-.63.32.51.51 0 00.3.63zM52 31a.54.54 0 00-.5.54 18.84 18.84 0 01-3.63 11.16.51.51 0 00.11.7.53.53 0 00.3.09.51.51 0 00.4-.2 19.87 19.87 0 003.82-11.77v-.08A.47.47 0 0052 31zM16.65 20.59a.52.52 0 00.41-.21 19.18 19.18 0 019.48-6.94.49.49 0 00.32-.63.5.5 0 00-.63-.32 20.25 20.25 0 00-10 7.3.49.49 0 00.11.7.46.46 0 00.31.1zM13.45 31.56a.5.5 0 00-.5-.5.5.5 0 00-.5.5 19.91 19.91 0 003.84 11.76.49.49 0 00.41.21.53.53 0 00.29-.1.5.5 0 00.11-.7 18.89 18.89 0 01-3.65-11.17zM32.44 20.63A10.41 10.41 0 1042.85 31a10.42 10.42 0 00-10.41-10.37zm0 19.82A9.41 9.41 0 1141.85 31a9.43 9.43 0 01-9.41 9.45z" />
</svg>
