<svg xmlns="http://www.w3.org/2000/svg" viewBox="0 0 64 64">
  <path d="M32 20a.51.51 0 00.5-.5V15a.51.51 0 00-.5-.5.5.5 0 00-.5.5v4.5a.5.5 0 00.5.5zM35.58 20.88a.51.51 0 00.4-.2l2.68-3.57a.5.5 0 10-.8-.6l-2.68 3.57a.5.5 0 00.1.7.49.49 0 00.3.1zM27.63 20.68a.51.51 0 00.4.2.5.5 0 00.4-.8l-2.68-3.57a.5.5 0 00-.8.6zM48.36 31.8a4.51 4.51 0 10-7.5-3.38v.35l-5-4.29a.59.59 0 00-.17-.1 3 3 0 00-3.65 1.09l-.04.13-.07-.13a3 3 0 00-3.65-1.09.59.59 0 00-.17.1l-5 4.3v-.36a4.52 4.52 0 10-9 0 4.47 4.47 0 001.55 3.38 4.21 4.21 0 00-2 3.78V49a.51.51 0 00.5.5h8.93a.5.5 0 00.5-.5V37.55l7.91-8.78a3.49 3.49 0 00.52-.71 3.05 3.05 0 00.51.7l7.91 8.79V49a.5.5 0 00.5.5h8.94a.51.51 0 00.5-.5V35.58a4.18 4.18 0 00-2.02-3.78zm-33.27-3.38A3.52 3.52 0 1121.75 30a3.51 3.51 0 01-3.12 1.93 3.63 3.63 0 01-1.54-.36h-.07a3.49 3.49 0 01-1.93-3.15zm15.66-.33L22.7 37a.55.55 0 00-.13.34v11.14h-7.93v-12.9c0-1.65.93-3 2.08-3.06a4.48 4.48 0 005.86-2l6.11-5.24a2 2 0 012.39.7 1.63 1.63 0 01-.33 2.11zm14.63-3.19A3.51 3.51 0 0147 31.54a3.47 3.47 0 01-4.69-1.5l-.06-.12a3.46 3.46 0 01-.36-1.51 3.53 3.53 0 013.49-3.51zm4 23.58h-7.96V37.36a.51.51 0 00-.13-.33l-8-9a1.61 1.61 0 01-.37-2.03 2 2 0 012.39-.7l6.09 5.22a4.51 4.51 0 004 2.42 4.41 4.41 0 001.89-.43c1.16.08 2.09 1.42 2.09 3.07z"/>
</svg>
