
<svg xmlns="http://www.w3.org/2000/svg" viewBox="0 0 64 64">
  <path d="M50 28.86a2.81 2.81 0 00.07-.71A3.26 3.26 0 0046.75 25L35 25.19c.8-3.05.6-4.14.39-5.3v-.1a7.35 7.35 0 00-.64-2c-.65-1.33-2.26-3.5-4.13-3.21a2.44 2.44 0 00-1.32.66.49.49 0 00-.15.36 48.87 48.87 0 01-.37 5 5 5 0 01-.46 1.59A20 20 0 0127 24.27a69.4 69.4 0 01-4.48 5.65v-.19A1.82 1.82 0 0020.67 28H13.8a1.82 1.82 0 00-1.88 1.76V46.1a1.82 1.82 0 001.88 1.75h6.87a1.82 1.82 0 001.87-1.75V45l4 2.61a12.3 12.3 0 004.72.93h10.79a3.33 3.33 0 003.31-2.75 2.85 2.85 0 00.07-.71 3.25 3.25 0 00-.92-2.19h.2a3.31 3.31 0 002.23-5.77 3.3 3.3 0 001.15-5.83A3.3 3.3 0 0050 28.86zM21.54 46.1a.82.82 0 01-.87.75H13.8a.82.82 0 01-.88-.75V29.73a.82.82 0 01.88-.73h6.87a.82.82 0 01.87.76zM49 28.67a2.41 2.41 0 01-2.36 1.94H43.9a.5.5 0 00-.5.5.5.5 0 00.5.5h2.32a2.32 2.32 0 01-.14 4.64h-1.49a.49.49 0 00-.38.48.48.48 0 00.38.47h.12a2.32 2.32 0 010 4.64H43.2a.45.45 0 00-.28.1 3.58 3.58 0 00-.8-.1.5.5 0 00-.49.51.51.51 0 00.51.49 2.25 2.25 0 012.29 2.21 2.18 2.18 0 010 .5A2.35 2.35 0 0142 47.54H31.3a11.57 11.57 0 01-4.3-.81l-4.5-2.92V31.39a.25.25 0 00.1-.08 67.52 67.52 0 005.2-6.47 21.36 21.36 0 001.33-2.22 6.15 6.15 0 00.55-1.91 46.54 46.54 0 00.37-4.86 1.53 1.53 0 01.64-.28c1.19-.17 2.5 1.5 3.07 2.67a6.07 6.07 0 01.59 1.76v.11c.21 1.12.4 2.17-.54 5.49a.52.52 0 00.08.44.49.49 0 00.4.2L46.77 26a2.23 2.23 0 012.29 2.2 2.18 2.18 0 01-.06.47z"/>
</svg>
