<svg xmlns="http://www.w3.org/2000/svg" viewBox="0 0 64 64">
  <path d="M24.1 29.72h17a2.06 2.06 0 002.05-2.39l-1-6.31a2.06 2.06 0 00-2-1.75H25a2.08 2.08 0 00-2.05 1.78L22 27.36a2.07 2.07 0 002.06 2.36zm-.18-8.53a1.07 1.07 0 011.08-.92h15.14a1.07 1.07 0 011.06.9l1 6.31a1.09 1.09 0 01-.24.87 1.11 1.11 0 01-.82.37h-17A1.08 1.08 0 0123 27.5zM25.82 38.12a2.35 2.35 0 10-2.35 2.34 2.35 2.35 0 002.35-2.34zm-2.35 1.34a1.35 1.35 0 010-2.69 1.35 1.35 0 110 2.69zM39.4 38.12a2.35 2.35 0 102.34-2.35 2.34 2.34 0 00-2.34 2.35zm3.69 0a1.35 1.35 0 11-1.35-1.35 1.34 1.34 0 011.35 1.35zM34 31.61h-2.8a.94.94 0 00-.94.94V40a.94.94 0 00.94.94H34a.94.94 0 001-.94v-7.45a.94.94 0 00-1-.94zm0 8.33l-2.73.06-.06-7.39 2.79-.06z" />
  <path d="M41.76 44.37h2.68a2.2 2.2 0 002.13-2.31l-3.44-25.93A2.19 2.19 0 0041 13.88h-.44v-.55a.8.8 0 00-.81-.8H25.47a.8.8 0 00-.81.8v.55h-.44a2.17 2.17 0 00-2.13 2.18l-3.44 26.07a2.18 2.18 0 002.13 2.24h2.68l-4.34 7.1a.5.5 0 000 .5.51.51 0 00.44.26h3.2a.5.5 0 00.43-.24l4.66-7.62h9.54L42 52a.5.5 0 00.43.24h3.2a.51.51 0 00.44-.26.5.5 0 000-.5zm-16.1-30.84h13.9v1.56h-13.9zm-6 28.66l3.45-26.06a1.19 1.19 0 011.13-1.25h.44v.4a.81.81 0 00.81.81h14.26a.81.81 0 00.81-.81v-.4H41a1.23 1.23 0 011.14 1.31l3.43 25.94a1.18 1.18 0 01-1.13 1.24H20.78a1.18 1.18 0 01-1.14-1.18zm2.83 9h-2l4.2-6.86h2zm20.28 0l-4.2-6.86h2l4.2 6.86z" />
</svg>
