<svg xmlns="http://www.w3.org/2000/svg" viewBox="0 0 64 64">
  <path d="M46.4 32.15a8.47 8.47 0 00-2.26-6.61 6.72 6.72 0 00.42-5.61 7.56 7.56 0 00-5.68-4.71 7.38 7.38 0 00-1.43-4.35 7 7 0 00-6.24-2.82c-3.29.43-5.83 3.64-6 7.44a6.1 6.1 0 00-5 2.62 6.72 6.72 0 00.19 7.47 8.22 8.22 0 00-2.81 5.15A8.83 8.83 0 0020 37.62a6.36 6.36 0 00-.74 5.48 6.35 6.35 0 002.84 3.07.73.73 0 00.32.09h8.72v9.13a.61.61 0 00.61.62.62.62 0 00.62-.62v-9.14h9a.62.62 0 00.32-.09A6.05 6.05 0 0044.18 43a6.37 6.37 0 00-.7-5.43 8.47 8.47 0 002.92-5.42zm-4.25 5.63c.3.43 1.72 2.7.88 4.76A4.8 4.8 0 0141.1 45h-8.78V34.6l6.52-6.53a.62.62 0 10-.84-.87l-5.65 5.65V19.54a.61.61 0 00-.62-.61.61.61 0 00-.61.61v6L26.59 21a.63.63 0 00-.88 0 .62.62 0 000 .87l5.38 5.37v13.2l-3.9-4.37a.61.61 0 00-.87 0 .63.63 0 00-.05.87l4.81 5.4V45h-8.54a4.91 4.91 0 01-2.18-2.38c-.84-2.06.58-4.33.88-4.76a.63.63 0 00-.11-.82 7.68 7.68 0 01-2.3-6.18 7.1 7.1 0 012.81-4.7.62.62 0 00.24-.42.57.57 0 00-.13-.47 5.5 5.5 0 01-.49-6.5 4.91 4.91 0 014.16-2.07h.38a.6.6 0 00.46-.17.66.66 0 00.19-.46c-.1-3.45 2.06-6.45 4.92-6.83a5.67 5.67 0 015.08 2.33 6.25 6.25 0 011.19 4.11.61.61 0 00.54.64 6.37 6.37 0 015.22 4 5.61 5.61 0 01-.56 5 .61.61 0 00.12.75A7.43 7.43 0 0145.17 32a7.22 7.22 0 01-2.87 4.92.62.62 0 00-.15.86z"/>
</svg>
