<svg xmlns="http://www.w3.org/2000/svg" viewBox="0 0 64 64">
  <path d="M46.56 43.91a.41.41 0 000-.16 5.37 5.37 0 00-1.74-4.15 5.09 5.09 0 00-1-.7v-4.39h.32a.6.6 0 00.6-.6v-7.17a.57.57 0 00-.47-.57V12.45a.6.6 0 00-.6-.6H20.29a.6.6 0 00-.6.6v13.7a.59.59 0 00-.56.59v7.17a.6.6 0 00.6.6h.33v4.3a5.34 5.34 0 00-2.74 4.95.62.62 0 00.07.23.59.59 0 00-.11.32V45A3.09 3.09 0 0019 48.14a3.65 3.65 0 00.88 2.93 3 3 0 002.21 1.08 2.92 2.92 0 002-1 2.8 2.8 0 00.92.19 3.12 3.12 0 002.27-1.14 3.31 3.31 0 00.79-2h7.54a3.31 3.31 0 00.79 2 3.12 3.12 0 002.27 1.14 2.69 2.69 0 00.91-.19 3 3 0 002 1 3 3 0 002.21-1.08A3.69 3.69 0 0045 48.14 3.09 3.09 0 0046.72 45v-.7a.62.62 0 00-.16-.39zm-1.17-.2h-1.63a2.18 2.18 0 00.3-1.07 2.34 2.34 0 00-4.67 0 2.17 2.17 0 00.29 1.07h-1.62a3.93 3.93 0 013.2-4.2 3.59 3.59 0 012.78 1 4.19 4.19 0 011.35 3.2zm-4.8-1.07a1.13 1.13 0 111.13 1.07 1.1 1.1 0 01-1.13-1.07zm-17.8-8.13h18.33v3.8a4.74 4.74 0 00-3.36 2.19v-4.19a.6.6 0 00-.6-.6H26.75a.6.6 0 00-.6.6v4.28a5.59 5.59 0 00-.83-1 4.94 4.94 0 00-2.54-1.24v-3.84zm0-9.93h18.33v1.55H22.79zm18.33 2.76v6h-8.56v-6zm1.2 0h1.26v6h-1.26zm-22 6v-6h1.26v6zm2.46-6h8.57v6h-8.56zm4.56 16.37v-6.8h9.21v6.8zm15.3-5.27l-.33-.08v-3.85h.33zM20.89 13.05h22.22v13.08h-.79V24a.09.09 0 000-.05.6.6 0 00-.6-.6H22.19a.6.6 0 00-.6.6v2.15h-.7zm.37 21.46h.33v3.8a3.2 3.2 0 00-.33.07zm.47 5a3.59 3.59 0 012.78 1 4.23 4.23 0 011.35 3.23h-1.63a2.17 2.17 0 00.29-1.07 2.33 2.33 0 00-4.66 0 2.17 2.17 0 00.29 1.07h-1.63a3.94 3.94 0 013.21-4.24zm-.67 3.14a1.13 1.13 0 111.13 1.07 1.1 1.1 0 01-1.13-1.08zM22.15 51a1.91 1.91 0 01-1.33-.67 2.47 2.47 0 01-.59-2v-.08H24a.22.22 0 000 .08 2.48 2.48 0 01-.56 2 1.78 1.78 0 01-1.29.67zm4.37-1.49a1.93 1.93 0 01-1.37.71h-.24a3.71 3.71 0 00.29-1.92H27a2.15 2.15 0 01-.48 1.16zm12.33.71a1.93 1.93 0 01-1.37-.71 2.15 2.15 0 01-.48-1.3h1.8a3.68 3.68 0 00.29 1.92zm4.33.11a1.83 1.83 0 01-1.31.67 1.78 1.78 0 01-1.3-.69 2.48 2.48 0 01-.56-2 .22.22 0 000-.08h3.78a.22.22 0 000 .08 2.47 2.47 0 01-.61 1.97zM44.51 47h-25c-.46 0-1-.88-1-2v-.1h27v.1c0 1.13-.51 2-1 2z"/>
</svg>
