<svg xmlns="http://www.w3.org/2000/svg" viewBox="0 0 64 64">
  <path d="M44.75 25.23a.85.85 0 01-.71-.6 10 10 0 00-18.81-1.28.71.71 0 01-.81.39 6.6 6.6 0 00-1.16-.11 6.69 6.69 0 00-6.53 5.23l-.37.12c-.71.22-.95.29-1 .34a7.16 7.16 0 00-1.72 1.22 6.75 6.75 0 00-1.37 1.92.51.51 0 00-.3.46.4.4 0 000 .15 5.45 5.45 0 00-.29 1 7.43 7.43 0 003.75 7.41c2.26 1.34 4.56 1.38 7 1.42h1.24c.78 0 1.61.05 2.44 0 2.36-.06 4.79 0 7.14 0h4.37c1.79 0 3.59 0 5.36-.13 5.64-.3 9.29-3.89 9.29-9.14a8.66 8.66 0 00-7.52-8.4zm-1.84 16.69c-3.2.18-6.49.13-9.66.09h-4.36C28 42 27 42 26.07 42H22.42c-2.3 0-4.47-.07-6.49-1.28a6.44 6.44 0 01-3.29-6.37 6.74 6.74 0 01.24-.88h28.43a2.61 2.61 0 10-2.6-2.61.5.5 0 00.5.5.5.5 0 00.5-.5 1.61 1.61 0 111.6 1.61H13.38a5.64 5.64 0 01.9-1.16 5.73 5.73 0 011.47-1c.1-.05.53-.18.91-.3.88-.28.93-.3 1-.6a5.69 5.69 0 015.61-4.7 5.39 5.39 0 011 .09 1.7 1.7 0 001.92-1 9 9 0 0116.88 1.1 1.86 1.86 0 001.55 1.32 7.66 7.66 0 016.63 7.56c0 4.74-3.2 7.86-8.34 8.14z" />
  <path d="M32.71 25.56a2.61 2.61 0 00-2.61 2.61.5.5 0 00.5.5.5.5 0 00.5-.5 1.61 1.61 0 111.61 1.61H22.53a.5.5 0 000 1h10.18a2.61 2.61 0 000-5.22zM32.71 35.31H22.53a.5.5 0 000 1h10.18a1.61 1.61 0 11-1.61 1.61.5.5 0 00-.5-.5.5.5 0 00-.5.5 2.61 2.61 0 102.61-2.61z" />
</svg>
