<svg xmlns="http://www.w3.org/2000/svg" viewBox="0 0 64 64">
  <path d="M48.7 23.15a.53.53 0 000-.12l-.1-.03a19.41 19.41 0 00-10.13-9l-.08-.05a.54.54 0 00-.21-.05 19.14 19.14 0 00-17.6 2.2h-.07l-.05.05a19.43 19.43 0 00-6.17 7.11.5.5 0 00-.2.41 19.24 19.24 0 001.5 19.26.62.62 0 00.14.19 19.27 19.27 0 0023.11 6.76h.08a19.31 19.31 0 005.36-3.36.47.47 0 00.19-.18 19.23 19.23 0 004.23-23.19zm-17.18-9.49A18.12 18.12 0 0138 14.88a4.12 4.12 0 012.26 3.24 2.73 2.73 0 01-1.47 2.47c-2.2 1.35-5.38 1.87-7.23.24a4.43 4.43 0 01-1-1.58 7.53 7.53 0 00-.52-1.07c-1.22-2.05-3.28-1.69-5.1-1.37-1.37.23-2.57.44-3.41-.21a18.19 18.19 0 019.99-2.94zM13.19 32A18.22 18.22 0 0115 24.1a11.11 11.11 0 016.49.44 51.26 51.26 0 018 4.43c.37.24 1.6 1.14 1.51 2.34-.15 1.85-2 2.14-4.53 2.35a11.09 11.09 0 00-2.54.4 2.65 2.65 0 00-1.12.69 1.53 1.53 0 00-.37 1.49A1.86 1.86 0 0023 37a5.09 5.09 0 002 1l.59.2c1.51.56 2.33 1.07 2.28 2.16a2.46 2.46 0 01-1 1.79c-1.35 1-3.16 1.06-4.74 1a18.78 18.78 0 01-5.73-.84A18.27 18.27 0 0113.19 32zm18.33 18.34a18 18 0 01-5.85-1A16.8 16.8 0 0131.49 48a17.15 17.15 0 015.89 1.42 18.32 18.32 0 01-5.86.92zm7.21-1.48A19.79 19.79 0 0031.49 47a19.14 19.14 0 00-7.17 1.91 18.49 18.49 0 01-6.92-5.18 24.18 24.18 0 004.67.49h.89A7.19 7.19 0 0027.45 43a3.47 3.47 0 001.43-2.55c.08-2-1.8-2.72-2.93-3.13l-.64-.22a4.2 4.2 0 01-1.63-.79 1 1 0 01-.27-.35.57.57 0 01.16-.51 1.69 1.69 0 01.71-.42 10.2 10.2 0 012.29-.34c2.33-.19 5.22-.43 5.45-3.27a3.74 3.74 0 00-2-3.26 50.68 50.68 0 00-8.18-4.51 11.72 11.72 0 00-6.26-.65 18.54 18.54 0 015.18-5.79c1.21 1.15 2.91.87 4.43.61 2-.34 3.26-.46 4.07.9a6.43 6.43 0 01.46.95 5.18 5.18 0 001.22 1.94 5.44 5.44 0 003.66 1.26 9.37 9.37 0 004.76-1.4 3.74 3.74 0 001.94-3.36 4.26 4.26 0 00-.57-1.92A18.54 18.54 0 0147.51 23c-.62.29-1.26.56-1.88.81-.88.36-1.79.73-2.65 1.18a8.18 8.18 0 00-4.06 4 4.56 4.56 0 000 3.66 4.17 4.17 0 002.56 2.18c.24.08.52.15.82.23 1.67.44 2.94.86 2.9 2a3.31 3.31 0 01-1.23 2 7.75 7.75 0 00-1.06 1.29 5.65 5.65 0 00-.58 4.06 3.23 3.23 0 00.9 1.56 18.3 18.3 0 01-4.5 2.89zM44 45.4a2.19 2.19 0 01-.67-1.15A4.63 4.63 0 0143.8 41a6.55 6.55 0 01.93-1.1 4.23 4.23 0 001.5-2.71c.07-2-2.17-2.63-3.64-3l-.78-.22a3.15 3.15 0 01-2-1.66 3.53 3.53 0 010-2.85 7.18 7.18 0 013.59-3.5c.82-.43 1.71-.79 2.56-1.14.65-.26 1.31-.54 2-.85A18.21 18.21 0 0144 45.4z"/>
</svg>
