<svg xmlns="http://www.w3.org/2000/svg" viewBox="0 0 64 64">
  <path d="M52.05 36.24a.58.58 0 00.06-.26 20.9 20.9 0 00.39-4A20.54 20.54 0 0036.05 11.9a20.25 20.25 0 00-4-.4 21.09 21.09 0 00-3.92.38.52.52 0 00-.21 0A20.5 20.5 0 0028 52.1h.06a20.3 20.3 0 003.94.4 21 21 0 003.9-.38 20.56 20.56 0 0016.15-15.88zM32.5 51.47v-10.1h1a39.78 39.78 0 005.28-.35 47.18 47.18 0 01-3.23 10.11 19.1 19.1 0 01-3.05.34zm-4.11-.32a46.76 46.76 0 01-3.31-10.55 48.31 48.31 0 006.42.75v10.12a18.73 18.73 0 01-3.11-.32zm3.11-38.63V23a46.41 46.41 0 00-6.52.77 42 42 0 013.39-10.91 20 20 0 013.13-.34zm4.07.32a41.34 41.34 0 013.31 10.47A39.68 39.68 0 0032.5 23V12.52a20.6 20.6 0 013.07.32zm15.9 18.66H40.68a48 48 0 00-.59-7 32.13 32.13 0 0111.1 4.14 19.11 19.11 0 01.28 2.86zm-11.79 0H32.5V24a38.73 38.73 0 016.56.39 45.8 45.8 0 01.62 7.11zM31.5 24v7.5h-7.24a48.68 48.68 0 01.55-6.7 46.71 46.71 0 016.69-.8zm-8.23 7.5H12.53a18.45 18.45 0 01.27-2.8 49.47 49.47 0 0111-3.69 47.82 47.82 0 00-.53 6.49zm-10.74 1h10.74a48.89 48.89 0 00.57 6.84 50.29 50.29 0 01-11-3.67 18.41 18.41 0 01-.31-3.17zm11.74 0h7.23v7.86a45.77 45.77 0 01-6.61-.81 45.36 45.36 0 01-.62-7.05zm8.23 7.89V32.5h7.17A44.72 44.72 0 0139 40a38.76 38.76 0 01-6.5.39zm8.17-7.89h10.8a18 18 0 01-.34 3.22A32.12 32.12 0 0140 39.84a46.78 46.78 0 00.67-7.34zm10.24-5.16a33.25 33.25 0 00-11-3.88 44.61 44.61 0 00-3.11-10.33 19.51 19.51 0 0114.11 14.21zm-23.79-14.2A45.41 45.41 0 0023.93 24a52.49 52.49 0 00-10.88 3.51 19.55 19.55 0 0114.07-14.37zm-14 23.77A53.16 53.16 0 0024 40.39a48.28 48.28 0 003.16 10.48 19.54 19.54 0 01-14.01-13.96zm23.6 14a48.24 48.24 0 003.08-10 33.34 33.34 0 0011-3.82 19.56 19.56 0 01-14.05 13.8z"/>
</svg>
